HIERARCHY
ROOT Hips
{
	OFFSET 0.000000 0.000000 0.000000
	CHANNELS 6 Xposition Yposition Zposition Zrotation Yrotation Xrotation 
	JOINT LHipJoint
	{
		OFFSET 0.000000 0.000000 0.000000
		CHANNELS 3 Zrotation Yrotation Xrotation
		JOINT LeftUpLeg
		{
			OFFSET 1.363060 -1.794630 0.839290
			CHANNELS 3 Zrotation Yrotation Xrotation
			JOINT LeftLeg
			{
				OFFSET 2.448110 -6.726130 0.000000
				CHANNELS 3 Zrotation Yrotation Xrotation
				JOINT LeftFoot
				{
					OFFSET 2.562200 -7.039590 0.000000
					CHANNELS 3 Zrotation Yrotation Xrotation
					JOINT LeftToeBase
					{
						OFFSET 0.157640 -0.433110 2.322550
						CHANNELS 3 Zrotation Yrotation Xrotation
						End Site
						{
							OFFSET 0.000000 0.000000 0.000000
						}
					}
				}
			}
		}
	}
	JOINT RHipJoint
	{
		OFFSET 0.000000 0.000000 0.000000
		CHANNELS 3 Zrotation Yrotation Xrotation
		JOINT RightUpLeg
		{
			OFFSET -1.305520 -1.794630 0.839290
			CHANNELS 3 Zrotation Yrotation Xrotation
			JOINT RightLeg
			{
				OFFSET -2.542530 -6.985550 0.000000
				CHANNELS 3 Zrotation Yrotation Xrotation
				JOINT RightFoot
				{
					OFFSET -2.568260 -7.056230 0.000000
					CHANNELS 3 Zrotation Yrotation Xrotation
					JOINT RightToeBase
					{
						OFFSET -0.164730 -0.452590 2.363150
						CHANNELS 3 Zrotation Yrotation Xrotation
						End Site
						{
							OFFSET 0.000000 0.000000 0.000000
						}
					}
				}
			}
		}
	}
}
MOTION
Frames: 28
Frame Time: 0.008333
3.546131 17.547837 0.517953 165.161418 -84.262927 -147.208383 -9.707207 -0.473309 -0.831638 -13.306797 7.591212 -40.339326 -2.260773 0.500866 20.452689 2.828297 15.767359 -2.682555 2.093700 0.000000 -33.641100 8.905594 -1.172150 0.087446 7.625578 1.089921 -9.020740 2.589496 0.901009 3.370310 -0.281555 -0.740032 -2.619608 -0.402000 0.000000 -43.965000
3.357176 17.514514 0.506333 167.091390 -84.060394 -149.122869 -9.623356 -0.614900 -0.576135 -12.917040 7.128591 -40.526334 -2.381427 0.190905 17.264915 2.671597 14.890788 -2.288462 2.125600 -0.000000 -34.001900 8.908429 -1.191411 -0.014564 7.723119 1.064301 -7.842396 2.602138 0.965095 2.732834 -0.286692 -0.711231 -2.926035 -0.380700 0.000001 -44.200500
3.167455 17.475153 0.496480 169.137356 -83.861956 -151.156725 -9.553270 -0.766133 -0.305406 -12.404331 6.634596 -40.675410 -2.488930 -0.125778 14.091174 2.485487 13.884669 -1.915391 2.113700 0.000000 -34.730600 8.901566 -1.206679 -0.134975 7.855640 1.002157 -6.672817 2.619875 1.025823 2.164991 -0.291613 -0.664775 -3.282227 -0.355200 0.000000 -44.469399
2.976931 17.429937 0.488831 171.545838 -83.662810 -153.566119 -9.495288 -0.926294 -0.043827 -11.796504 6.221213 -40.854568 -2.590284 -0.431432 11.052827 2.260721 12.677001 -1.599772 2.035900 0.000000 -35.556900 8.879674 -1.220144 -0.261896 8.048880 0.947736 -5.480710 2.642951 1.088653 1.629347 -0.301056 -0.636038 -3.675588 -0.330200 -0.000000 -44.713200
2.785262 17.379512 0.483093 174.196309 -83.462624 -156.236342 -9.444361 -1.090214 0.199216 -11.147203 5.925617 -41.079678 -2.687063 -0.720334 8.176372 2.001583 11.289040 -1.301535 1.907100 0.000000 -36.558500 8.849240 -1.232622 -0.394915 8.285679 0.873944 -4.272257 2.671692 1.152005 1.137432 -0.311038 -0.597327 -4.107954 -0.302300 0.000000 -44.942301
2.592247 17.324446 0.479091 177.018802 -83.262996 -159.103900 -9.395168 -1.252654 0.409908 -10.525713 5.802389 -41.385296 -2.785812 -0.983996 5.521679 1.711439 9.724742 -1.003376 1.733501 0.000000 -37.696000 8.815865 -1.246127 -0.530214 8.551561 0.766498 -3.049746 2.705938 1.214971 0.692140 -0.318630 -0.529888 -4.574623 -0.270400 0.000000 -45.188300
2.397687 17.265444 0.476525 179.881713 -83.068452 -162.039688 -9.342597 -1.408885 0.580848 -9.999598 5.870663 -41.794054 -2.891538 -1.218129 3.130428 1.400193 8.023093 -0.688670 1.526100 -0.000000 -38.939300 8.786165 -1.262453 -0.665815 8.821778 0.606796 -1.823777 2.744900 1.275161 0.302769 -0.319716 -0.407417 -5.069376 -0.233100 0.000001 -45.492400
2.201530 17.203096 0.475173 -177.290725 -82.885520 -164.969203 -9.282069 -1.554402 0.703742 -9.642082 6.157329 -42.353444 -3.013853 -1.416323 1.081164 1.075044 6.197146 -0.373773 1.285300 0.000000 -40.238600 8.764274 -1.283955 -0.797979 9.077389 0.385060 -0.608904 2.788140 1.330472 -0.020272 -0.310719 -0.208631 -5.583100 -0.191100 -0.000000 -45.897900
2.003573 17.138349 0.474534 -174.730229 -82.725720 -167.647338 -9.213821 -1.687310 0.802878 -9.428233 6.522068 -43.000792 -3.134787 -1.590060 -0.701831 0.771213 4.456082 -0.031253 1.050200 0.000000 -41.581300 8.756101 -1.309247 -0.934239 9.274621 0.076772 0.567464 2.833521 1.375624 -0.256349 -0.286096 0.100981 -6.104043 -0.145300 0.000001 -46.477100
1.803782 17.071735 0.474640 -172.384946 -82.594449 -170.120828 -9.136555 -1.803464 0.875617 -9.388617 6.973604 -43.788320 -3.262115 -1.732080 -2.121570 0.493055 2.807006 0.273102 0.815300 -0.000000 -42.892300 8.760625 -1.340512 -1.069246 9.411070 -0.304014 1.689829 2.881059 1.409228 -0.396211 -0.244690 0.524374 -6.615224 -0.100100 -0.000000 -47.262100
1.601923 17.004014 0.475318 -170.304882 -82.497818 -172.324101 -9.053728 -1.901361 0.943647 -9.458590 7.395756 -44.665252 -3.379866 -1.849091 -3.219421 0.263679 1.407311 0.517913 0.609100 0.000000 -44.122200 8.778257 -1.376604 -1.206608 9.471124 -0.750597 2.739613 2.929417 1.427941 -0.427082 -0.185229 1.066753 -7.098688 -0.059600 -0.000000 -48.281000
1.397958 16.935831 0.476491 -168.465566 -82.436292 -174.273857 -8.969245 -1.980303 1.019568 -9.575849 7.719971 -45.595130 -3.478370 -1.943056 -4.004694 0.094089 0.345104 0.663646 0.448600 -0.000000 -45.209900 8.807338 -1.416854 -1.346585 9.454763 -1.241501 3.708504 2.977510 1.429661 -0.343572 -0.108998 1.716531 -7.534903 -0.028000 -0.000001 -49.528901
1.191666 16.867774 0.478164 -166.820689 -82.406549 -176.009406 -8.887300 -2.040818 1.111723 -9.675868 7.900906 -46.538321 -3.550409 -2.014845 -4.486763 -0.011421 -0.335524 0.674738 0.344900 0.000001 -46.097800 8.845488 -1.461026 -1.488171 9.370091 -1.749676 4.597031 3.024050 1.413112 -0.146243 -0.019089 2.450579 -7.904973 -0.008000 -0.000000 -50.972700
0.982786 16.800420 0.480443 -165.308716 -82.401744 -177.591288 -8.810730 -2.084511 1.220891 -9.713219 7.930277 -47.467620 -3.594561 -2.062781 -4.660069 -0.056837 -0.657248 0.521640 0.296500 0.000000 -46.742600 8.889758 -1.509399 -1.628258 9.231957 -2.243638 5.414420 3.067402 1.378017 0.156800 0.079750 3.234396 -8.191643 -0.000199 0.000000 -52.554600
0.771053 16.734301 0.483280 -163.932822 -82.414061 -179.013594 -8.745029 -2.115410 1.357506 -9.597580 7.752957 -48.302946 -3.596586 -2.091814 -4.597435 -0.036902 -0.583872 0.221233 0.309000 0.000000 -47.116900 8.937469 -1.560228 -1.767272 9.049846 -2.696429 6.172159 3.105024 1.324295 0.552870 0.182446 4.030748 -8.381251 -0.002399 -0.000000 -54.212200
0.555979 16.669774 0.486941 -162.606731 -82.434198 179.633509 -8.688620 -2.134617 1.508488 -9.346308 7.431622 -49.067296 -3.569369 -2.094292 -4.245838 0.028390 -0.269756 -0.239373 0.352900 -0.000000 -47.229500 8.985391 -1.615948 -1.898039 8.848175 -3.081427 6.887570 3.135416 1.253783 1.022392 0.283405 4.795710 -8.461028 -0.010400 0.000000 -55.900001
0.337195 16.607282 0.491512 -161.368259 -82.455044 178.390679 -8.646101 -2.146030 1.685613 -8.878177 6.908259 -49.681104 -3.496786 -2.077131 -3.709064 0.143578 0.313992 -0.790829 0.428000 -0.000000 -47.119601 9.031331 -1.674156 -2.021801 8.633844 -3.383143 7.571680 3.155965 1.167792 1.546032 0.378076 5.492776 -8.425840 -0.018600 0.000000 -57.569100
0.114073 16.547084 0.497119 -160.191530 -82.470445 177.232803 -8.616512 -2.149381 1.882427 -8.213407 6.219398 -50.161883 -3.387032 -2.036769 -2.980648 0.291768 1.053115 -1.387985 0.512500 0.000000 -46.862599 9.072546 -1.736623 -2.131547 8.424194 -3.584518 8.235873 3.164999 1.069368 2.099688 0.461760 6.081942 -8.272789 -0.021201 -0.000000 -59.181701
-0.113800 16.489420 0.503867 -159.117915 -82.477955 176.201368 -8.600450 -2.143792 2.099567 -7.357111 5.365446 -50.504974 -3.240496 -1.974198 -2.101895 0.463481 1.902126 -1.952599 0.600400 -0.000000 -46.550201 9.107857 -1.803062 -2.225351 8.222434 -3.687623 8.883487 3.161193 0.960932 2.664813 0.532360 6.542653 -8.001973 -0.013900 -0.000000 -60.745600
-0.346943 16.434458 0.511787 -158.176941 -82.476220 175.326399 -8.596716 -2.125910 2.329862 -6.367479 4.387839 -50.752266 -3.068936 -1.886078 -1.065590 0.640445 2.769863 -2.417964 0.684700 0.000001 -46.270699 9.136554 -1.875056 -2.298178 8.030384 -3.699122 9.514135 3.143930 0.845291 3.225543 0.588858 6.863994 -7.615132 0.005800 -0.000000 -62.284300
-0.585743 16.382439 0.520598 -157.507177 -82.469377 174.750935 -8.607062 -2.092467 2.577434 -5.267666 3.274064 -50.903835 -2.870963 -1.776745 0.062759 0.819138 3.671272 -2.686721 0.780900 -0.000001 -46.100400 9.159555 -1.951162 -2.350683 7.828715 -3.640361 10.116556 3.112083 0.724106 3.775190 0.632439 7.055870 -7.116062 0.038100 0.000000 -63.845900
-0.830263 16.333530 0.529985 -157.211696 -82.461940 174.576069 -8.630999 -2.039936 2.834384 -4.138699 2.070266 -51.011877 -2.658960 -1.644286 1.288474 0.986420 4.555554 -2.697084 0.897700 0.000000 -46.082301 9.178156 -2.032225 -2.380276 7.599401 -3.533089 10.677613 3.065251 0.598688 4.312703 0.665210 7.138099 -6.506577 0.081800 0.000000 -65.490300
-1.080541 16.287652 0.539818 -157.262299 -82.451940 174.765216 -8.666292 -1.967027 3.073126 -3.133602 0.923003 -51.199964 -2.465275 -1.475702 2.733809 1.111336 5.251963 -2.449958 1.021601 0.000000 -46.188700 9.193157 -2.123386 -2.377230 7.342877 -3.386794 11.188272 3.004562 0.470661 4.839677 0.689218 7.131175 -5.785210 0.135300 0.000001 -67.276400
-1.336277 16.245257 0.549222 -157.919118 -82.454324 175.587177 -8.717947 -1.876167 3.308760 -2.234773 -0.233730 -51.421821 -2.272179 -1.285310 4.267797 1.215844 5.912391 -1.864131 1.190200 0.000000 -46.411400 9.208190 -2.221444 -2.350153 7.010617 -3.237389 11.616971 2.928533 0.337532 5.378322 0.709478 7.085980 -4.952281 0.198300 0.000001 -69.272800
-1.596815 16.206415 0.557851 -159.183616 -82.472431 177.035804 -8.785896 -1.773771 3.522564 -1.539495 -1.302282 -51.749361 -2.096067 -1.068308 5.958189 1.288856 6.462502 -0.962481 1.395100 -0.000000 -46.681800 9.225197 -2.331311 -2.295235 6.596385 -3.095312 11.945584 2.838323 0.197484 5.949103 0.728972 7.037217 -4.001901 0.272000 0.000001 -71.520900
-1.861473 16.171101 0.565461 -160.985453 -82.507988 179.036327 -8.869434 -1.669659 3.697436 -1.114946 -2.198720 -52.232967 -1.946880 -0.821749 7.869104 1.325206 6.849255 0.196770 1.617700 0.000000 -46.854100 9.246819 -2.458605 -2.209742 6.105738 -2.963200 12.157796 2.735514 0.047728 6.579102 0.749675 7.015053 -2.925984 0.360299 0.000000 -74.028500
-2.128935 16.139372 0.571859 -163.270851 -82.564370 -178.473418 -8.965972 -1.575545 3.825307 -0.972060 -2.896804 -52.872024 -1.821268 -0.549906 10.005641 1.332896 7.092788 1.547873 1.844800 -0.000001 -46.774800 9.277579 -2.606737 -2.097080 5.543111 -2.847962 12.236589 2.621145 -0.116158 7.304018 0.772815 7.049857 -1.714004 0.470000 -0.000000 -76.777700
-2.398103 16.111442 0.576860 -165.986265 -82.647222 -175.547555 -9.069243 -1.501856 3.906290 -1.080550 -3.418404 -53.629252 -1.708447 -0.263604 12.324718 1.328002 7.261744 3.018156 2.072100 0.000000 -46.354199 9.324743 -2.777686 -1.964285 4.911998 -2.759911 12.163514 2.495223 -0.299017 8.165283 0.797987 7.167846 -0.353337 0.611300 -0.000000 -79.718600
